<?xml version="1.0" standalone="no"?>
<!DOCTYPE svg PUBLIC "-//W3C//DTD SVG 20010904//EN"
 "http://www.w3.org/TR/2001/REC-SVG-20010904/DTD/svg10.dtd">
<svg version="1.0" xmlns="http://www.w3.org/2000/svg"
 width="1635.000000pt" height="1635.000000pt" viewBox="0 0 1635.000000 1635.000000"
 preserveAspectRatio="xMidYMid meet">
<metadata>
Created by potrace 1.14, written by Peter Selinger 2001-2017
</metadata>
<g transform="translate(0.000000,1635.000000) scale(0.100000,-0.100000)"
fill="#000000" stroke="none">
<path d="M11946 16115 c-77 -41 -267 -174 -350 -245 -295 -251 -476 -472 -609
-742 -80 -162 -128 -317 -154 -499 -9 -64 -9 -363 0 -435 6 -43 22 -131 43
-230 25 -125 106 -349 185 -513 58 -121 68 -148 50 -137 -29 18 -347 27 -486
13 -305 -30 -547 -110 -755 -247 -117 -77 -294 -252 -368 -365 -154 -233 -234
-493 -235 -760 0 -155 6 -215 39 -390 33 -177 157 -535 274 -790 115 -252 321
-636 455 -845 34 -53 139 -219 150 -237 22 -35 240 -350 264 -381 58 -75 153
-93 244 -48 182 89 703 419 972 615 478 348 850 699 1068 1008 178 252 266
518 271 813 2 74 -1 151 -5 170 -4 19 -10 53 -12 75 -6 43 -12 75 -22 105 -3
10 -8 28 -10 41 -14 71 -88 243 -146 336 -142 229 -363 426 -642 574 l-88 46
48 13 c26 7 92 31 146 52 355 144 649 400 790 688 65 134 127 342 144 480 3
25 9 65 13 88 8 48 6 473 -3 509 -3 12 -8 48 -12 80 -9 82 -36 136 -85 172
-40 29 -46 30 -124 26 -44 -2 -97 -6 -116 -10 -19 -3 -45 -8 -57 -10 -13 -2
-26 -6 -30 -8 -5 -3 -25 -8 -46 -11 -21 -3 -61 -13 -89 -22 -28 -10 -53 -13
-57 -8 -4 5 -16 45 -25 89 -62 277 -196 587 -369 857 -68 105 -163 135 -261
83z m103 -537 c77 -160 125 -290 167 -457 47 -188 48 -182 -33 -227 -189 -105
-383 -283 -480 -439 -113 -183 -188 -379 -227 -595 -20 -113 -25 -156 -26
-275 l-1 -100 -22 45 c-113 228 -201 492 -222 661 -3 24 -8 58 -11 74 -8 42
-8 276 -1 300 4 11 9 44 12 72 8 74 68 249 116 341 89 167 215 331 369 481 78
75 278 241 291 241 5 0 35 -55 68 -122z m815 -833 c3 -8 4 -87 2 -177 -4 -247
-50 -432 -158 -640 -39 -74 -69 -116 -127 -174 -190 -192 -436 -329 -698 -388
l-61 -14 -5 32 c-9 62 1 313 16 391 27 140 66 256 128 382 52 106 70 133 137
200 75 75 189 167 263 212 67 42 235 119 314 144 140 46 181 53 189 32z
m-1806 -1789 c4 -2 34 -7 67 -10 33 -3 94 -13 135 -21 41 -8 110 -22 152 -30
313 -63 612 -205 857 -410 104 -86 149 -136 205 -223 213 -331 212 -764 -2
-1097 -117 -181 -336 -421 -561 -615 -35 -30 -69 -60 -75 -65 -6 -6 -31 -26
-56 -45 -63 -49 -79 -61 -114 -91 -75 -63 -317 -237 -501 -361 -178 -120 -507
-328 -519 -328 -17 0 -230 334 -408 640 -220 379 -463 909 -529 1155 -4 17
-15 55 -23 85 -9 30 -18 69 -21 85 -3 17 -8 41 -10 55 -3 14 -7 34 -9 45 -23
120 -24 269 -1 389 59 319 248 575 530 719 61 32 170 73 215 82 8 2 42 10 76
19 33 9 92 19 130 22 38 3 71 8 74 11 5 5 378 -5 388 -11z"/>
<path d="M10424 12641 c-123 -57 -310 -426 -358 -706 -13 -78 -14 -307 -1
-385 21 -132 25 -150 37 -195 5 -22 12 -48 13 -57 15 -75 103 -345 131 -400 8
-15 14 -29 13 -30 -1 -2 6 -21 15 -43 10 -22 31 -72 47 -112 45 -108 112 -156
203 -148 80 8 150 75 161 155 6 42 1 61 -48 176 -29 71 -66 165 -81 209 -16
44 -32 89 -37 100 -20 48 -68 235 -83 325 -42 245 -20 417 78 625 18 39 59
108 91 155 69 101 83 134 79 179 -11 130 -143 207 -260 152z"/>
<path d="M6039 15381 c-42 -13 -84 -49 -107 -90 -21 -37 -23 -101 -8 -201 3
-19 8 -54 11 -77 3 -23 7 -57 9 -75 3 -18 8 -55 11 -83 3 -27 8 -61 10 -75 4
-27 17 -143 30 -265 2 -27 7 -61 9 -75 2 -14 7 -54 11 -90 3 -36 8 -83 10
-105 2 -22 7 -67 10 -100 3 -33 8 -78 10 -100 10 -98 15 -155 20 -220 3 -38 7
-95 10 -125 4 -52 -5 -36 -173 300 -97 196 -197 398 -221 450 -158 337 -193
412 -243 525 -22 50 -52 103 -67 118 -81 88 -232 69 -288 -36 -9 -18 -18 -36
-19 -42 -1 -5 -14 -57 -27 -115 -14 -58 -28 -123 -31 -145 -3 -22 -7 -49 -10
-60 -2 -11 -7 -49 -10 -85 -4 -36 -9 -81 -12 -100 -7 -53 -7 -378 0 -440 4
-30 12 -89 17 -130 57 -399 238 -750 538 -1048 62 -62 110 -117 105 -121 -5
-4 -38 -30 -74 -58 -235 -184 -396 -473 -445 -798 -7 -48 -8 -279 -1 -303 3
-9 7 -35 11 -57 14 -99 57 -229 107 -330 22 -43 185 -329 363 -635 177 -305
412 -710 522 -900 275 -474 654 -1127 783 -1350 59 -102 117 -201 128 -220 11
-19 84 -145 162 -280 79 -135 154 -265 168 -290 14 -25 33 -56 42 -70 9 -14
19 -30 21 -35 18 -48 123 -209 159 -245 217 -219 587 -133 685 160 24 70 24
200 0 790 -2 52 -7 183 -10 290 -3 107 -8 245 -10 305 -3 61 -7 184 -10 275
-3 91 -7 224 -10 295 -11 294 -16 447 -20 580 -2 77 -7 208 -10 290 -3 83 -7
220 -10 305 -3 85 -7 214 -10 285 -7 208 -16 455 -20 593 -13 382 -16 477 -21
582 -3 63 -7 129 -10 145 -3 17 -7 44 -10 60 -19 114 -69 256 -130 366 -208
380 -614 629 -1038 638 -41 1 -48 4 -43 19 29 99 58 215 63 252 3 25 8 47 9
51 21 33 26 448 7 539 -6 30 -14 66 -16 80 -3 14 -8 39 -12 55 -13 69 -89 277
-135 375 -106 222 -255 445 -419 625 -80 88 -194 196 -222 211 -35 18 -105 26
-139 15z m359 -828 c58 -96 125 -242 161 -350 110 -333 99 -691 -33 -1028 -31
-81 -35 -86 -37 -55 -1 19 -3 44 -4 55 -1 11 -5 65 -9 120 -4 55 -9 120 -11
145 -2 25 -7 83 -10 130 -3 47 -8 101 -10 120 -5 39 -12 123 -20 220 -3 36 -8
85 -11 110 -2 25 -6 65 -8 90 -2 25 -7 68 -10 95 -3 28 -8 73 -11 100 -13 138
-16 163 -20 195 -3 19 -7 54 -10 78 -3 23 -4 42 -2 42 3 0 23 -30 45 -67z
m-1032 -300 c41 -91 411 -831 474 -948 43 -81 62 -116 139 -257 23 -43 40 -78
36 -78 -13 0 -162 120 -226 181 -135 131 -258 299 -324 442 -31 69 -78 205
-89 259 -3 13 -8 34 -11 48 -13 58 -24 119 -30 180 -9 81 -15 250 -8 250 2 0
20 -35 39 -77z m1749 -1488 c263 -66 492 -260 594 -502 58 -137 67 -194 77
-493 l6 -205 -124 -34 c-453 -126 -569 -161 -595 -180 -48 -36 -68 -78 -68
-148 0 -54 4 -66 31 -100 61 -75 118 -90 229 -61 39 10 77 21 85 23 8 2 78 22
155 44 243 71 280 81 290 81 6 0 11 -19 11 -42 1 -63 15 -499 19 -603 4 -106
14 -395 20 -580 2 -71 7 -195 10 -275 3 -80 7 -212 10 -295 9 -280 15 -460 20
-585 6 -162 14 -384 20 -585 3 -88 8 -218 10 -290 17 -488 17 -462 0 -479 -17
-17 -43 -20 -62 -8 -10 6 -103 157 -103 167 0 3 -18 34 -40 70 -22 36 -40 68
-40 71 0 3 -8 18 -18 32 -11 15 -33 52 -49 82 -17 30 -99 174 -183 320 -84
146 -164 285 -178 310 -14 25 -59 104 -100 175 -41 72 -85 148 -97 170 -13 22
-44 76 -69 120 -25 44 -42 82 -38 86 4 3 41 16 82 27 431 118 464 131 500 202
54 105 -6 233 -120 259 -58 13 -25 21 -480 -114 -85 -26 -161 -47 -168 -48
-11 -2 -406 623 -398 630 3 3 39 14 251 75 153 43 170 51 211 92 72 72 72 176
0 251 -64 67 -109 74 -246 35 -145 -41 -386 -110 -397 -114 -12 -5 -44 41 -99
140 -16 29 -107 187 -203 352 -95 165 -173 304 -173 309 0 4 82 31 182 60 180
52 219 68 252 106 48 54 49 162 3 223 -31 40 -94 73 -140 74 -16 0 -129 -29
-250 -64 -121 -35 -223 -60 -227 -57 -5 4 -17 47 -28 96 -32 148 -17 352 36
481 91 221 226 369 432 473 61 31 659 209 792 236 87 18 275 12 365 -10z"/>
<path d="M2764 15360 c-71 -16 -124 -79 -248 -294 -217 -375 -378 -805 -431
-1146 -3 -19 -7 -46 -10 -60 -26 -140 -26 -497 0 -631 3 -13 10 -50 15 -81 13
-67 58 -221 89 -296 109 -271 275 -514 515 -754 123 -122 128 -127 243 -220
43 -34 80 -65 83 -68 3 -3 30 -23 60 -45 142 -100 209 -145 219 -145 6 0 11
-3 11 -8 0 -4 17 -16 38 -27 20 -10 49 -27 64 -37 14 -10 63 -38 108 -62 l82
-44 90 -173 c50 -96 105 -200 124 -232 19 -32 34 -60 34 -63 0 -18 266 -448
423 -684 198 -297 233 -344 275 -368 135 -75 301 55 260 205 -4 17 -43 83 -85
145 -293 433 -455 693 -618 993 -21 39 -57 104 -80 146 l-42 75 74 125 c82
137 243 456 243 480 0 8 4 19 9 24 11 12 64 152 101 265 98 296 139 553 134
840 -3 194 -10 255 -50 427 -59 253 -202 532 -402 782 -262 325 -685 657
-1107 867 -133 66 -167 76 -221 64z m378 -576 c357 -231 669 -536 832 -814 48
-82 115 -226 141 -304 54 -160 67 -247 70 -456 3 -223 -13 -354 -74 -580 -26
-98 -83 -261 -132 -379 -44 -104 -171 -361 -179 -361 -6 0 -32 56 -112 245
-33 77 -65 154 -73 170 -7 17 -48 125 -90 240 -42 116 -80 217 -83 225 -3 8
-6 17 -7 20 -1 3 -16 50 -34 105 -30 91 -101 322 -114 370 -3 11 -15 54 -27
95 -12 41 -42 154 -66 250 -57 223 -84 265 -191 286 -67 13 -153 -34 -187
-103 -28 -56 -22 -97 58 -413 12 -46 47 -173 61 -220 44 -148 77 -256 82 -270
3 -8 7 -19 9 -25 21 -83 213 -608 256 -704 11 -25 26 -62 34 -83 l13 -39 -62
48 c-181 137 -368 316 -480 458 -26 33 -52 65 -57 72 -69 85 -200 332 -240
453 -150 460 -69 1017 237 1625 140 279 124 266 231 203 48 -28 131 -80 184
-114z"/>
<path d="M8825 14634 c-143 -36 -229 -83 -328 -182 -208 -204 -265 -528 -141
-792 92 -195 277 -340 492 -384 266 -56 548 56 708 280 176 247 168 582 -19
830 -161 212 -452 314 -712 248z m306 -376 c69 -32 141 -110 168 -181 14 -38
19 -73 17 -127 -6 -233 -226 -382 -449 -303 -73 25 -165 118 -192 193 -63 176
26 368 203 435 59 23 184 14 253 -17z"/>
<path d="M14040 13443 c-58 -7 -159 -38 -212 -64 -250 -122 -399 -358 -399
-629 1 -99 4 -122 32 -211 68 -219 243 -390 469 -460 61 -19 98 -23 200 -23
110 0 134 3 205 28 44 15 104 41 132 57 214 123 352 353 354 594 2 99 -6 148
-36 236 -93 277 -349 466 -639 473 -44 1 -92 1 -106 -1z m207 -385 c71 -26
146 -96 179 -166 22 -46 28 -72 28 -132 1 -92 -14 -146 -57 -202 -134 -175
-367 -192 -513 -36 -68 73 -89 126 -89 228 0 72 4 93 28 141 79 163 252 231
424 167z"/>
<path d="M15745 12436 c-76 -18 -128 -42 -190 -88 -73 -53 -105 -93 -170 -213
-21 -38 -63 -115 -93 -170 -30 -55 -65 -118 -77 -140 -12 -22 -90 -164 -174
-316 l-151 -276 -94 28 c-126 37 -264 56 -394 54 -96 -2 -132 -5 -225 -21 -55
-9 -235 -74 -308 -111 -188 -95 -250 -149 -662 -566 -687 -699 -874 -882
-1087 -1067 -35 -30 -75 -66 -91 -80 -238 -218 -761 -618 -1129 -866 -210
-141 -651 -415 -720 -447 -8 -4 -31 -17 -50 -29 -19 -11 -60 -34 -90 -51 -217
-118 -275 -150 -355 -192 -49 -26 -103 -56 -120 -65 -16 -10 -75 -41 -130 -70
-55 -30 -116 -62 -135 -73 -19 -11 -73 -40 -120 -65 -314 -166 -480 -276 -690
-458 -316 -273 -618 -686 -761 -1041 l-41 -103 -1486 0 -1485 0 25 23 c82 76
82 109 2 370 -36 117 -72 235 -81 262 -8 28 -28 93 -45 145 -34 107 -150 483
-178 575 -10 33 -41 132 -68 220 -28 88 -77 246 -109 350 l-59 190 74 22 c332
96 582 387 628 727 70 529 -343 999 -876 998 -52 -1 -131 -8 -175 -17 -76 -16
-215 -66 -243 -88 -17 -13 -23 -6 -56 73 -59 137 -188 300 -331 419 -113 95
-351 196 -505 217 -25 3 -48 8 -52 11 -11 6 -238 5 -273 -2 -131 -26 -187 -40
-240 -60 -273 -102 -492 -298 -620 -554 -42 -84 -90 -225 -101 -301 -4 -30 -9
-58 -10 -62 -1 -5 -2 -23 -3 -42 l-1 -34 -72 14 c-146 29 -332 23 -480 -15
-433 -111 -756 -459 -833 -897 -16 -93 -21 -243 -10 -329 17 -136 79 -317 146
-429 39 -66 40 -68 26 -99 -73 -154 -107 -309 -108 -487 -1 -380 200 -746 521
-947 341 -213 752 -233 1110 -53 149 75 294 196 391 327 55 74 67 91 80 126 6
15 14 27 19 27 7 0 510 -665 510 -675 0 -3 -188 -5 -418 -5 -242 0 -431 -4
-451 -10 -41 -12 -86 -52 -111 -100 -15 -30 -17 -57 -15 -180 4 -196 15 -381
31 -520 16 -149 35 -286 54 -390 11 -58 22 -118 25 -135 25 -139 100 -428 157
-605 118 -365 295 -761 469 -1049 22 -34 39 -65 39 -67 0 -2 46 -72 102 -156
331 -496 711 -903 1183 -1267 676 -522 1527 -920 2410 -1125 39 -9 77 -18 85
-20 78 -21 430 -87 535 -101 22 -3 69 -10 105 -15 122 -18 265 -34 405 -45 39
-4 86 -8 105 -10 216 -26 1069 -26 1300 0 19 2 73 6 120 10 47 4 99 8 115 10
17 2 57 6 90 10 33 3 69 7 81 9 11 2 45 7 75 10 30 3 64 8 77 11 13 2 58 9
100 15 42 6 138 22 212 36 74 14 146 28 160 31 22 4 76 16 135 29 11 3 30 7
43 10 260 54 835 236 1067 339 17 7 57 24 90 38 563 236 1169 621 1625 1032
74 67 341 337 400 405 30 34 60 68 65 74 120 128 369 474 506 704 38 64 74
124 79 132 37 58 208 414 263 545 117 284 238 673 291 940 9 44 19 91 22 105
2 14 12 66 20 115 8 50 17 102 19 116 5 27 9 61 20 144 3 28 8 64 10 80 3 27
11 113 21 235 2 25 6 138 10 252 6 201 6 208 -16 253 -15 32 -37 56 -67 75
-41 26 -51 28 -165 29 -67 1 -124 3 -126 5 -1 2 56 120 129 262 72 143 195
385 274 539 382 750 911 1791 1159 2280 123 242 162 332 192 447 82 317 50
644 -93 938 l-55 114 30 61 c17 33 49 92 70 130 21 39 56 102 77 140 21 39 48
88 60 110 33 61 138 253 172 315 17 30 41 75 55 100 156 281 182 334 193 397
34 185 -22 357 -156 477 -49 44 -77 61 -171 99 -55 23 -191 29 -263 13z m168
-376 c39 -23 67 -72 67 -117 0 -26 -41 -117 -90 -198 -10 -16 -98 -176 -195
-355 -213 -391 -227 -416 -276 -503 -22 -38 -39 -70 -39 -72 0 -2 -16 -32 -37
-66 -37 -64 -41 -79 -47 -159 -4 -48 8 -78 68 -173 154 -246 189 -555 95 -849
-21 -69 -229 -488 -241 -488 -5 0 -8 4 -8 10 0 22 -94 203 -134 257 -128 174
-306 287 -511 322 -144 26 -254 115 -335 273 -29 55 -65 119 -81 144 -112 166
-309 295 -516 338 -37 8 -71 12 -76 9 -31 -19 15 34 133 153 183 184 341 287
515 333 178 47 425 25 607 -54 98 -42 168 -47 232 -14 49 24 74 59 178 249
540 980 519 943 558 962 46 24 91 23 133 -2z m-13228 -1930 c124 -27 277 -107
365 -192 114 -109 205 -277 225 -418 3 -25 9 -61 11 -80 12 -81 37 -121 97
-152 86 -44 171 -21 248 65 68 78 183 141 294 164 29 5 145 5 175 0 106 -21
206 -73 280 -147 201 -202 200 -528 -2 -730 -98 -98 -197 -136 -362 -139 -54
-1 -105 -5 -114 -8 -60 -21 -121 -103 -122 -162 0 -13 23 -96 51 -185 28 -88
68 -217 89 -286 21 -69 75 -242 120 -385 44 -143 101 -325 126 -405 25 -80 67
-215 94 -300 111 -352 143 -456 147 -475 4 -17 -14 -30 -109 -79 -62 -32 -138
-72 -168 -87 -30 -16 -58 -29 -61 -29 -4 0 -94 172 -200 383 -471 936 -472
938 -512 970 -30 25 -49 32 -97 35 -50 4 -66 0 -102 -21 -55 -32 -90 -92 -90
-155 -1 -42 33 -115 307 -667 169 -341 310 -623 312 -627 2 -5 -112 -8 -254
-8 l-258 0 -106 143 c-497 665 -805 1064 -835 1086 -52 37 -135 36 -191 -1
-44 -29 -78 -88 -87 -153 -30 -199 -156 -391 -336 -509 -178 -117 -415 -154
-620 -96 -313 89 -540 377 -553 702 -6 138 25 267 94 396 75 142 80 206 19
283 -112 142 -168 292 -175 468 -12 304 155 580 432 711 206 98 457 98 656 0
32 -17 83 -33 111 -36 135 -16 226 96 195 237 -25 108 -12 273 30 396 89 262
332 464 601 499 25 4 47 8 49 10 7 7 177 -5 226 -16z m10680 -35 c169 -14 231
-26 301 -59 102 -48 167 -117 233 -250 57 -115 141 -230 212 -287 112 -92 252
-159 366 -178 81 -13 160 -51 223 -108 65 -58 86 -92 162 -256 33 -73 73 -160
89 -194 16 -34 31 -73 35 -87 4 -18 -43 -121 -209 -447 -215 -425 -739 -1464
-986 -1956 l-132 -263 -2785 0 c-1531 0 -2784 4 -2784 8 0 17 97 193 166 302
200 315 495 607 810 802 49 30 175 101 279 158 105 56 213 115 240 130 28 15
77 42 110 60 33 18 83 45 110 60 28 15 79 43 115 63 120 64 274 149 390 215
63 36 129 73 145 82 172 98 572 353 778 497 251 176 601 440 732 551 11 9 45
37 75 62 88 72 251 211 300 257 25 23 56 51 70 63 104 90 257 236 514 492 295
295 299 298 335 294 20 -3 68 -8 106 -11z m716 -4454 c4 0 5 -22 3 -48 -1 -27
-6 -95 -9 -153 -3 -58 -8 -116 -10 -130 -2 -14 -6 -52 -10 -85 -12 -116 -16
-150 -26 -200 -5 -27 -10 -62 -11 -77 l-2 -28 -5928 0 c-3260 0 -5929 3 -5929
8 -1 4 -3 16 -4 27 -2 11 -8 52 -14 90 -14 96 -20 149 -27 225 -2 36 -7 74 -9
85 -2 12 -7 81 -11 155 l-6 135 5993 -1 c3297 -1 5997 -2 6000 -3z m-141
-1098 c0 -27 -76 -299 -122 -438 -168 -505 -403 -957 -713 -1370 -91 -121 -96
-127 -241 -294 -154 -177 -428 -440 -584 -561 -25 -19 -47 -37 -50 -40 -33
-38 -389 -283 -570 -392 -501 -302 -1201 -575 -1800 -703 -41 -9 -84 -19 -95
-21 -17 -4 -109 -22 -195 -39 -14 -2 -36 -7 -50 -10 -14 -3 -43 -7 -65 -10
-22 -4 -65 -10 -95 -15 -66 -11 -108 -17 -175 -25 -27 -4 -61 -8 -75 -11 -14
-2 -58 -6 -97 -9 -40 -4 -82 -8 -92 -10 -11 -2 -57 -6 -103 -10 -46 -3 -108
-8 -138 -10 -294 -23 -1023 -23 -1205 0 -16 2 -64 7 -105 10 -135 10 -258 22
-300 30 -14 2 -47 7 -75 10 -68 8 -297 43 -365 56 -30 5 -68 12 -85 15 -27 5
-93 19 -322 70 -114 25 -389 103 -544 155 -573 190 -1142 480 -1589 807 -69
51 -251 193 -276 217 -6 5 -42 37 -80 69 -150 129 -423 415 -583 611 -252 309
-532 793 -690 1190 -108 275 -239 702 -225 735 1 3 2635 5 5853 5 4507 0 5851
-3 5851 -12z"/>
<path d="M1105 8285 c-66 -29 -114 -108 -109 -179 9 -120 175 -342 339 -453
58 -39 187 -101 226 -108 10 -2 23 -6 28 -10 6 -3 29 -8 53 -11 24 -3 59 -9
78 -13 40 -8 152 -7 225 3 209 29 434 155 561 314 61 77 77 109 80 162 5 97
-67 178 -166 188 -65 6 -126 -24 -167 -81 -48 -66 -103 -116 -173 -157 -257
-152 -586 -50 -725 225 -30 61 -49 84 -81 105 -48 30 -121 37 -169 15z"/>
<path d="M12965 9267 c-36 -12 -92 -47 -124 -78 -19 -18 -125 -108 -256 -217
-11 -9 -63 -51 -115 -92 -52 -41 -97 -77 -100 -80 -3 -3 -32 -25 -65 -50 -33
-24 -64 -48 -70 -53 -5 -4 -68 -52 -139 -105 -84 -63 -136 -109 -148 -132 -25
-49 -24 -122 4 -172 46 -82 165 -116 244 -69 44 26 303 219 449 335 61 48 126
99 145 114 39 31 163 134 170 142 3 3 43 37 90 75 100 83 106 88 130 140 63
134 -76 289 -215 242z"/>
<path d="M10779 7750 c-15 -4 -69 -30 -120 -57 -52 -28 -139 -74 -194 -103
-55 -29 -165 -88 -245 -130 -80 -42 -194 -103 -255 -135 -60 -32 -126 -68
-145 -80 -19 -12 -42 -24 -50 -27 -30 -11 -275 -181 -369 -255 -122 -98 -404
-380 -431 -432 -63 -125 25 -265 167 -264 60 1 95 21 163 97 139 153 333 323
499 435 63 43 259 161 267 161 2 0 43 22 91 48 49 27 129 70 178 97 50 26 108
58 130 70 22 12 76 42 120 65 330 176 356 192 384 234 21 32 26 51 26 102 0
54 -4 67 -31 101 -47 59 -125 89 -185 73z"/>
<path d="M3446 4248 c-88 -19 -148 -99 -141 -191 2 -35 15 -68 45 -120 24 -40
49 -83 56 -97 8 -14 40 -63 71 -109 66 -97 108 -126 184 -124 113 1 196 104
175 216 -3 18 -35 80 -71 136 -36 56 -65 104 -65 106 0 15 -85 135 -107 151
-39 29 -100 42 -147 32z"/>
<path d="M4038 3420 c-109 -31 -164 -140 -123 -248 15 -38 55 -84 204 -232
222 -220 278 -271 496 -447 150 -122 461 -335 623 -428 396 -228 396 -228 464
-223 42 3 65 11 93 32 42 33 74 95 75 145 0 45 -34 115 -68 141 -15 11 -31 23
-37 28 -5 4 -70 41 -144 81 -339 185 -614 371 -891 602 -151 126 -415 378
-495 471 -55 64 -133 95 -197 78z"/>
<path d="M1084 12234 c-287 -49 -508 -266 -570 -559 -3 -11 -6 -61 -8 -112 -7
-191 62 -360 204 -504 71 -71 101 -94 180 -133 120 -59 195 -75 335 -72 89 2
126 8 190 30 197 67 352 209 428 391 37 88 47 131 53 225 5 75 1 119 -21 235
-3 17 -26 71 -51 121 -136 277 -436 430 -740 378z m210 -366 c79 -23 146 -74
189 -144 106 -172 38 -396 -146 -480 -127 -57 -271 -30 -371 69 -71 71 -91
124 -91 237 0 83 4 101 27 145 26 51 94 121 139 146 71 38 177 49 253 27z"/>
<path d="M5780 8079 c-134 -13 -306 -92 -406 -187 -40 -37 -105 -124 -137
-182 -104 -188 -105 -456 -4 -645 73 -136 210 -265 328 -311 24 -9 49 -20 54
-24 9 -7 66 -22 80 -21 2 0 19 -5 37 -10 52 -14 186 -12 268 5 43 9 115 36
170 62 174 87 310 254 360 446 14 56 18 101 16 193 -3 137 -26 223 -92 336
-47 79 -159 194 -239 241 -77 46 -199 88 -278 94 -34 3 -66 6 -72 8 -5 1 -44
-1 -85 -5z m212 -391 c70 -32 133 -96 166 -168 37 -79 37 -192 0 -271 -52
-114 -164 -189 -287 -195 -278 -12 -446 293 -288 525 86 126 267 175 409 109z"/>
</g>
</svg>
